<?xml version="1.0" encoding="UTF-8" standalone="no"?>
<!DOCTYPE svg PUBLIC "-//W3C//DTD SVG 1.1//EN" "http://www.w3.org/Graphics/SVG/1.1/DTD/svg11.dtd">
<svg width="100%" height="100%" viewBox="0 0 993 328" version="1.1" xmlns="http://www.w3.org/2000/svg" xmlns:xlink="http://www.w3.org/1999/xlink" xml:space="preserve" xmlns:serif="http://www.serif.com/" style="fill-rule:evenodd;clip-rule:evenodd;stroke-linejoin:round;stroke-miterlimit:2;">
    <g id="Layer1">
        <rect x="-2.72" y="-1.318" width="1012.88" height="335.439" style="fill:white;"/>
    </g>
    <g transform="matrix(4.16667,0,0,4.16667,-255.026,-1947.7)">
        <path d="M147.142,531.927L132.235,531.927C131.11,525.692 130.032,520.94 129.001,517.671C127.97,514.401 126.552,512.766 124.747,512.766L91.841,512.766L91.841,531.927L77.357,531.927L77.357,501.2L122.286,501.2C123.528,501.2 124.642,500.831 125.626,500.093C126.61,499.354 127.103,498.399 127.103,497.227C127.103,496.759 126.939,496.214 126.61,495.593C126.282,494.971 125.784,494.438 125.116,493.993C124.448,493.548 123.599,493.325 122.568,493.325L77.357,493.325L77.357,481.513L132.517,481.513C135.845,481.513 138.247,482.444 139.724,484.307C141.2,486.171 141.939,488.345 141.939,490.829L141.939,501.024C141.939,503.134 141.569,504.686 140.831,505.682C140.093,506.679 138.587,507.798 136.314,509.04C137.79,509.837 138.839,510.458 139.46,510.903C140.081,511.348 140.849,512.298 141.763,513.751C142.677,515.204 143.579,517.36 144.47,520.22C145.36,523.079 146.251,526.981 147.142,531.927Z" style="fill:rgb(35,31,32);fill-rule:nonzero;"/>
    </g>
    <g transform="matrix(4.16667,0,0,4.16667,-255.026,-1947.7)">
        <path d="M205.872,531.927L166.919,531.927C162.888,531.927 159.525,531.095 156.829,529.43C154.134,527.766 152.177,525.78 150.958,523.471C149.74,521.163 149.13,518.989 149.13,516.95L149.13,495.575C149.13,493.278 149.915,491.04 151.486,488.86C153.056,486.68 154.931,484.911 157.111,483.552C159.29,482.192 161.118,481.513 162.595,481.513L205.591,481.513L205.591,493.325L171.947,493.325C170.681,493.325 169.421,493.712 168.167,494.485C166.913,495.259 165.888,496.22 165.091,497.368C164.294,498.516 163.896,499.595 163.896,500.602L163.896,512.415C163.896,513.54 164.2,514.641 164.81,515.72C165.419,516.798 166.298,517.694 167.447,518.409C168.595,519.124 169.861,519.481 171.243,519.481L205.872,519.481L205.872,531.927Z" style="fill:rgb(35,31,32);fill-rule:nonzero;"/>
    </g>
    <g transform="matrix(4.16667,0,0,4.16667,-255.026,-1947.7)">
        <path d="M283.368,531.927L268.461,531.927C267.336,525.692 266.258,520.94 265.227,517.671C264.196,514.401 262.778,512.766 260.973,512.766L228.067,512.766L228.067,531.927L213.582,531.927L213.582,501.2L258.512,501.2C259.754,501.2 260.868,500.831 261.852,500.093C262.836,499.354 263.328,498.399 263.328,497.227C263.328,496.759 263.164,496.214 262.836,495.593C262.508,494.971 262.01,494.438 261.342,493.993C260.674,493.548 259.825,493.325 258.793,493.325L213.582,493.325L213.582,481.513L268.743,481.513C272.071,481.513 274.473,482.444 275.95,484.307C277.426,486.171 278.164,488.345 278.164,490.829L278.164,501.024C278.164,503.134 277.795,504.686 277.057,505.682C276.319,506.679 274.813,507.798 272.539,509.04C274.016,509.837 275.065,510.458 275.686,510.903C276.307,511.348 277.075,512.298 277.989,513.751C278.903,515.204 279.805,517.36 280.696,520.22C281.586,523.079 282.477,526.981 283.368,531.927Z" style="fill:rgb(35,31,32);fill-rule:nonzero;"/>
    </g>
    <g transform="matrix(4.16667,0,0,4.16667,-255.026,-1946.77)">
        <path d="M288.525,536.507L288.525,476.712L71.723,476.712L71.723,536.507L288.525,536.507ZM73.223,535.007L287.024,535.007L287.024,478.212L73.223,478.212L73.223,535.007Z" style="fill:rgb(35,31,32);"/>
    </g>
    <g transform="matrix(4.16667,0,0,4.16667,-255.026,-1947.72)">
        <path d="M294.452,541.438L294.452,472.008L66.083,472.008L66.083,541.438L294.452,541.438ZM67.583,539.938L292.952,539.938L292.952,473.508L67.583,473.508L67.583,539.938Z" style="fill:rgb(35,31,32);"/>
    </g>
    <g transform="matrix(4.16667,0,0,4.16667,-255.026,-1947.11)">
        <path d="M299.502,545.993L299.502,467.307L61.206,467.307L61.206,545.993L299.502,545.993ZM62.706,544.493L298.002,544.493L298.002,468.808L62.706,468.808L62.706,544.493Z" style="fill:rgb(35,31,32);"/>
    </g>
</svg>
